Coordinates
version=1
nRows=21
nColumns=22
inDegrees=yes

Units are S.I. units (second, meters, Newtons, ...)
If the header above contains a line with 'inDegrees', this indicates whether rotational values are in degrees (yes) or radians (no).

endheader
time	pelvis_tilt	pelvis_list	pelvis_rotation	pelvis_tx	pelvis_ty	pelvis_tz	hip_flexion_r	hip_adduction_r	hip_rotation_r	knee_angle_r	ankle_angle_r	subtalar_angle_r	hip_flexion_l	hip_adduction_l	hip_rotation_l	knee_angle_l	ankle_angle_l	subtalar_angle_l	lumbar_extension	lumbar_bending	lumbar_rotation
      1.24000000	      2.98526869	     -5.38853474	      3.16308779	      0.87073323	      0.91282246	      0.00675035	     18.92676705	      4.97982869	    -14.93045749	    -23.90101120	      3.04501839	     -8.81031120	      3.55746201	    -11.05180809	     -3.36118662	    -62.46148343	      5.89383718	     -0.47490718	    -11.85240049	      5.23470305	     -7.70943587
      1.25000000	      2.81993482	     -5.37864993	      3.32977011	      0.86513480	      0.91149574	      0.00506412	     19.56741250	      4.76605214	    -15.03553483	    -24.02822306	      2.73187512	     -8.76161427	      3.13683427	    -10.96002207	     -3.37613314	    -61.23403480	      6.18859960	     -0.56285693	    -11.63764430	      5.25959304	     -8.12916022
      1.26000000	      2.68313966	     -5.39303671	      3.49479840	      0.85921924	      0.91014200	      0.00332297	     20.19532239	      4.57535804	    -15.12157196	    -24.14555633	      2.33801660	     -8.76800285	      2.75098925	    -10.88421382	     -3.36398006	    -59.98220119	      6.51401192	     -0.55556124	    -11.49084407	      5.31505558	     -8.52929510
      1.27000000	      2.53942142	     -5.38613999	      3.67024304	      0.85299286	      0.90872702	      0.00149733	     20.83844092	      4.34413527	    -15.24160797	    -24.24597458	      1.91919839	     -8.76863039	      2.43286975	    -10.75137645	     -3.27920002	    -58.69216353	      6.87056661	     -0.52087341	    -11.36683119	      5.33923740	     -8.91996700
      1.28000000	      2.39257288	     -5.37111972	      3.85772150	      0.84644666	      0.90724890	     -0.00041266	     21.48884879	      4.08895032	    -15.38510015	    -24.32113331	      1.47382861	     -8.76743943	      2.17926327	    -10.57961239	     -3.11890794	    -57.37478482	      7.25039262	     -0.45563331	    -11.26968561	      5.34960128	     -9.29330143
      1.29000000	      2.20393473	     -5.32974445	      4.07334996	      0.83955971	      0.90563801	     -0.00244583	     22.19320252	      3.77127230	    -15.59757064	    -24.38912863	      1.04991800	     -8.72310850	      2.04274630	    -10.33794447	     -2.84431611	    -56.05319490	      7.63133891	     -0.30005600	    -11.15207778	      5.32382414	     -9.68350928
      1.30000000	      2.05580175	     -5.30937091	      4.27660450	      0.83235936	      0.90404368	     -0.00450672	     22.83345392	      3.48524179	    -15.79754915	    -24.37737272	      0.53219788	     -8.74757134	      1.90181562	    -10.09910301	     -2.51466052	    -54.72352160	      8.10867870	     -0.09678655	    -11.11416957	      5.31478914	    -10.02348266
      1.31000000	      1.91869850	     -5.28679717	      4.48266294	      0.82481638	      0.90241641	     -0.00662602	     23.44507609	      3.19367724	    -16.00462875	    -24.29819789	     -0.01836636	     -8.81603824	      1.80277961	     -9.82764455	     -2.08741397	    -53.42738182	      8.68278596	      0.16731750	    -11.12206075	      5.29289736	    -10.34035441
      1.32000000	      1.79111837	     -5.26088841	      4.68834597	      0.81694979	      0.90074887	     -0.00881039	     24.02458790	      2.89672802	    -16.21598875	    -24.14576956	     -0.58748920	     -8.92838250	      1.74995560	     -9.53083107	     -1.57701161	    -52.20666423	      9.38141069	      0.48360886	    -11.17074246	      5.26170335	    -10.62532556
      1.33000000	      1.68302027	     -5.23347148	      4.87939270	      0.80878330	      0.89906228	     -0.01100387	     24.55845885	      2.60940924	    -16.41234468	    -23.91656695	     -1.17192628	     -9.07754084	      1.73302062	     -9.22492762	     -1.01686943	    -51.09700326	     10.23978119	      0.78588604	    -11.27144947	      5.21484118	    -10.86767175
      1.34000000	      1.58045152	     -5.20969492	      5.08626433	      0.80031216	      0.89732886	     -0.01324237	     25.06002706	      2.32703134	    -16.60665789	    -23.60895292	     -1.73157787	     -9.30777052	      1.79860372	     -8.91545693	     -0.37548844	    -50.15527802	     11.24747608	      1.14139272	    -11.40483540	      5.16076750	    -11.09576476
      1.35000000	      1.51241316	     -5.17461746	      5.27223414	      0.79163601	      0.89562170	     -0.01547632	     25.50591707	      2.04288711	    -16.80863237	    -23.25144515	     -2.28289449	     -9.55004684	      1.88872350	     -8.62064730	      0.20645017	    -49.36424200	     12.44640700	      1.37542035	    -11.59685046	      5.08265622	    -11.27294621
      1.36000000	      1.46632018	     -5.12182484	      5.45172811	      0.78276743	      0.89394419	     -0.01768868	     25.90729332	      1.74997522	    -17.02197623	    -22.84426644	     -2.78272786	     -9.80688390	      2.03354566	     -8.33215992	      0.72384415	    -48.73291357	     13.78877046	      1.53122131	    -11.83157348	      4.96340280	    -11.41898634
      1.37000000	      1.43518694	     -5.04125454	      5.64123066	      0.77372637	      0.89231222	     -0.01991714	     26.27525885	      1.43117269	    -17.23312854	    -22.40217310	     -3.19277367	    -10.12869662	      2.24426733	     -8.04270534	      1.14200249	    -48.24226282	     15.22611572	      1.59857843	    -12.09670267	      4.80204497	    -11.57412984
      1.38000000	      1.43759784	     -4.90554525	      5.80633851	      0.76456835	      0.89079561	     -0.02211016	     26.60408129	      1.06651315	    -17.43836950	    -21.96349010	     -3.48328972	    -10.38784614	      2.46730964	     -7.73272974	      1.36556446	    -47.83491847	     16.70860444	      1.59759765	    -12.41513539	      4.56050213	    -11.69273245
      1.39000000	      1.45008845	     -4.71067886	      5.98371196	      0.75523482	      0.88939190	     -0.02429941	     26.90503234	      0.65211638	    -17.58705295	    -21.49826026	     -3.58224410	    -10.75545761	      2.75294876	     -7.37414178	      1.45837210	    -47.51933502	     18.15742453	      1.36531568	    -12.76740337	      4.23698273	    -11.82477019
      1.40000000	      1.50747290	     -4.44181038	      6.12547348	      0.74583332	      0.88820669	     -0.02642759	     27.15139924	      0.18436821	    -17.69204546	    -21.03953572	     -3.49463680	    -10.99558788	      3.00617504	     -6.97196725	      1.30687803	    -47.21611084	     19.53383967	      1.05448231	    -13.18535744	      3.81555852	    -11.92876658
      1.41000000	      1.60126575	     -4.11000891	      6.25070626	      0.73637695	      0.88726604	     -0.02849261	     27.33725733	     -0.32389321	    -17.74748972	    -20.56160716	     -3.18789128	    -11.12937961	      3.23419634	     -6.52662254	      0.96268682	    -46.91200252	     20.79569582	      0.64719669	    -13.65671610	      3.30927501	    -12.02279207
      1.42000000	      1.72896553	     -3.72012038	      6.34618484	      0.72696367	      0.88661526	     -0.03048646	     27.44832444	     -0.86279932	    -17.77426855	    -20.04401109	     -2.63473516	    -11.12941106	      3.40149475	     -6.03243214	      0.45055691	    -46.55498072	     21.91994974	      0.19483246	    -14.16169733	      2.72516410	    -12.07392593
      1.43000000	      1.89070023	     -3.28904373	      6.42866938	      0.71751705	      0.88627255	     -0.03243635	     27.47032109	     -1.40233228	    -17.68252393	    -19.44061794	     -1.97781722	    -10.99357232	      3.52713478	     -5.49497057	     -0.17092684	    -46.16736207	     22.93989150	     -0.60542941	    -14.71515599	      2.09858370	    -12.16643734
      1.44000000	      2.09507231	     -2.82133248	      6.48004222	      0.70818725	      0.88625211	     -0.03428485	     27.40057385	     -1.94377038	    -17.55735171	    -18.79284485	     -1.11800221	    -10.65630963	      3.55820176	     -4.92139076	     -0.86980876	    -45.69430149	     23.81251553	     -1.31261882	    -15.29940860	      1.42079925	    -12.22970630
